<svg width="64" height="64" viewBox="0 0 64 64" fill="none" xmlns="http://www.w3.org/2000/svg">
<g id="Frame">
<g id="SVGRepo_iconCarrier">
<path id="Vector" d="M44.0622 19.9379C43.6156 19.4513 42.9778 19.1491 42.2689 19.1491C40.9267 19.1491 39.8378 20.2379 39.8378 21.5802C39.8378 22.2891 40.14 22.9268 40.6245 23.3713L40.6267 23.3735C43.86 26.6002 45.86 31.0624 45.86 35.9913C45.86 45.8379 37.8778 53.8224 28.0289 53.8224C18.18 53.8224 10.1978 45.8402 10.1978 35.9913C10.1978 30.5335 12.6489 25.6491 16.5111 22.3779L16.5378 22.3557L17.6822 28.1024C17.9133 29.2246 18.8933 30.0579 20.0667 30.0579C20.9045 30.0579 21.6445 29.6335 22.0822 28.9868L22.0867 28.9779L30.0356 17.0802V17.0713L30.0489 17.0491C30.0867 16.9891 30.1245 16.9313 30.1578 16.8668L30.1733 16.8357C30.2045 16.7757 30.2333 16.7135 30.2622 16.6446L30.2733 16.6113C30.2978 16.5491 30.32 16.4868 30.34 16.4202C30.34 16.4046 30.34 16.3891 30.3511 16.3757C30.3689 16.3157 30.3845 16.2535 30.3978 16.1846C30.3978 16.1557 30.3978 16.1246 30.4111 16.0957C30.4245 16.0668 30.4289 15.9979 30.4311 15.9491C30.4311 15.8691 30.4422 15.7891 30.4422 15.7068C30.4422 15.6246 30.4422 15.6891 30.4422 15.6802C30.4422 15.6091 30.4422 15.5379 30.4311 15.4668C30.42 15.3957 30.4156 15.3557 30.4067 15.3002C30.4067 15.2779 30.4067 15.2557 30.3978 15.2335C30.3845 15.1602 30.3645 15.0913 30.3445 15.0224V15.0024C30.3222 14.9291 30.2978 14.8579 30.2689 14.7891V14.7802C30.24 14.7135 30.2089 14.6491 30.1778 14.5891L30.1689 14.5691C30.1378 14.5113 30.1045 14.4557 30.0689 14.4002L30.0467 14.3646C30.0133 14.3179 29.98 14.2713 29.9445 14.2268L29.9045 14.1735C29.8711 14.1313 29.8311 14.0913 29.7933 14.0513L29.7467 13.9979C29.6904 13.9416 29.6326 13.8891 29.5733 13.8402L29.54 13.8157C29.4889 13.7735 29.4356 13.7335 29.3822 13.6979L17.4667 5.74239C17.0867 5.48683 16.62 5.3335 16.1156 5.3335C14.7733 5.3335 13.6845 6.42239 13.6845 7.76461C13.6845 7.93127 13.7022 8.09572 13.7333 8.2535L13.7311 8.23794L15.4889 17.0779C9.34001 21.2002 5.34668 28.1224 5.34668 35.9779C5.34668 48.5046 15.5022 58.6602 28.0289 58.6602C40.5556 58.6602 50.7111 48.5046 50.7111 35.9779C50.7111 29.7157 48.1733 24.0446 44.0689 19.9402L44.0622 19.9379Z" fill="#FF0000" stroke="#FF0000" stroke-width="2.22222"/>
</g>
</g>
</svg>
