<svg width="37" height="49" viewBox="0 0 37 49" fill="none" xmlns="http://www.w3.org/2000/svg">
<path d="M34.8773 27.3929L35.2617 27.7127L19.4092 46.769C18.9474 47.3241 18.32 47.6234 17.6701 47.6234C17.0203 47.6234 16.3925 47.3241 15.93 46.7695C15.0258 45.6853 15.0257 43.955 15.9296 42.8706L34.8773 27.3929ZM34.8773 27.3929L35.2617 27.7126C36.9131 25.7274 36.9131 22.5385 35.2617 20.5533C35.2617 20.5533 35.2617 20.5533 35.2617 20.5532L19.2942 1.35505L19.2937 1.35453C18.8361 0.805824 18.2161 0.50601 17.5721 0.500089C16.9278 0.494165 16.3031 0.782925 15.8383 1.32601L15.8382 1.32612C14.9125 2.40828 14.9021 4.15818 15.8123 5.25512L15.8127 5.25562L30.4267 22.8222C31.0222 23.538 31.0222 24.7279 30.4267 25.4437L15.93 42.8702L34.8773 27.3929Z" fill="white" stroke="white"/>
<path d="M20.2406 27.3929L20.6249 27.7127L4.77245 46.769C4.31073 47.3241 3.68323 47.6234 3.03337 47.6234C2.38358 47.6234 1.75583 47.3241 1.29326 46.7695C0.389126 45.6853 0.389001 43.955 1.29287 42.8706L20.2406 27.3929ZM20.2406 27.3929L20.625 27.7126C22.2763 25.7274 22.2764 22.5385 20.625 20.5533C20.625 20.5533 20.625 20.5533 20.6249 20.5532L4.65745 1.35505L4.65702 1.35453C4.1994 0.805824 3.5794 0.50601 2.93541 0.500089C2.29107 0.494165 1.66634 0.782925 1.20154 1.32601L1.20145 1.32612C0.2758 2.40828 0.265383 4.15818 1.17555 5.25512L1.17596 5.25562L15.79 22.8222C16.3854 23.538 16.3854 24.7279 15.79 25.4437L1.29326 42.8702L20.2406 27.3929Z" fill="white" stroke="white"/>
</svg>
