<svg width="191" height="191" viewBox="0 0 191 191" fill="none" xmlns="http://www.w3.org/2000/svg">
<g id="Layer_1" clip-path="url(#clip0_302_252)">
<g id="SVGRepo_iconCarrier">
<path id="Vector" d="M173.278 77.778H138.284L163.028 53.0335C169.938 46.1235 169.938 34.8806 163.028 27.9711C159.681 24.6237 155.231 22.7805 150.497 22.7805C145.764 22.7805 141.313 24.6237 137.966 27.9714L113.222 52.716V17.7216C113.222 7.95 105.272 0 95.5 0C85.7284 0 77.7784 7.95 77.7784 17.7216V52.716L53.0338 27.9711C49.6872 24.6237 45.2368 22.7805 40.5028 22.7805C35.7689 22.7805 31.3184 24.6237 27.9718 27.9714C21.0622 34.881 21.0622 46.1235 27.9718 53.0335L52.7164 77.778H17.7216C7.95 77.778 0 85.7284 0 95.5C0 105.272 7.95 113.222 17.7216 113.222H52.716L27.9714 137.966C21.0615 144.876 21.0615 156.119 27.9714 163.029C31.318 166.376 35.7685 168.219 40.5024 168.219C45.236 168.219 49.6869 166.376 53.0335 163.029L77.778 138.284V173.278C77.778 183.05 85.728 191 95.4996 191C105.271 191 113.221 183.05 113.221 173.278V138.284L137.966 163.029C141.312 166.376 145.763 168.22 150.497 168.22C155.231 168.22 159.681 166.376 163.028 163.029C169.937 156.119 169.937 144.877 163.028 137.967L138.283 113.222H173.278C183.049 113.222 190.999 105.272 190.999 95.5008C190.999 85.7292 183.05 77.778 173.278 77.778Z" fill="#FFCE00"/>
<path id="Vector_2" d="M138.284 113.221H149.19C145.013 108.31 142.465 101.989 142.465 95.1585C142.465 88.6402 144.787 82.5864 148.629 77.7778H138.283L163.028 53.0333C169.938 46.1233 169.938 34.8804 163.028 27.9708C159.681 24.6235 155.23 22.7803 150.497 22.7803C145.763 22.7803 141.312 24.6235 137.966 27.9712L113.221 52.7158V47.2037C108.279 51.4959 101.868 54.1248 94.9328 54.1248C88.516 54.1248 82.5491 51.8738 77.7778 48.1381V52.7154L53.0333 27.9708C49.6867 24.6235 45.2362 22.7803 40.5023 22.7803C35.7683 22.7803 31.3178 24.6235 27.9712 27.9712C21.0617 34.8808 21.0617 46.1233 27.9712 53.0333L52.7158 77.7778H41.4722C46.2259 82.8248 49.1741 89.5833 49.1741 96.9308C49.1741 102.966 47.1824 108.602 43.8388 113.221H52.7162L27.9716 137.966C21.0617 144.876 21.0617 156.119 27.9716 163.028C31.3182 166.376 35.7687 168.219 40.5026 168.219C45.2362 168.219 49.687 166.376 53.0336 163.028L77.7782 138.284V150.835C82.7271 146.517 89.1569 143.871 96.115 143.871C102.51 143.871 108.458 146.107 113.222 149.819V138.283L137.966 163.028C141.313 166.375 145.763 168.219 150.497 168.219C155.231 168.219 159.682 166.375 163.028 163.028C169.938 156.118 169.938 144.876 163.028 137.966L138.284 113.221Z" fill="#D9B314"/>
<path id="Vector_3" d="M95.5005 20.6753C53.9162 20.6753 20.085 54.5065 20.085 96.0908C20.085 137.675 53.9162 171.506 95.5005 171.506C137.085 171.506 170.916 137.675 170.916 96.0908C170.916 54.5069 137.085 20.6753 95.5005 20.6753Z" fill="#C52600"/>
<path id="Vector_4" d="M95.8945 20.6802V171.501C137.298 171.288 170.916 137.543 170.916 96.0909C170.916 54.6383 137.298 20.8936 95.8945 20.6802Z" fill="#A62000"/>
<path id="Vector_5" d="M95.4997 152.9C126.874 152.9 152.308 127.466 152.308 96.0915C152.308 64.7172 126.874 39.2832 95.4997 39.2832C64.1254 39.2832 38.6914 64.7172 38.6914 96.0915C38.6914 127.466 64.1254 152.9 95.4997 152.9Z" fill="#3E3D41"/>
<g id="Group">
<path id="Vector_6" d="M95.5003 52.2771C124.677 52.2771 148.714 74.2745 151.938 102.589C152.181 100.456 152.31 98.2883 152.31 96.0911C152.31 64.716 126.876 39.2812 95.5003 39.2812C64.1248 39.2812 38.6904 64.7156 38.6904 96.0911C38.6904 98.2887 38.8199 100.456 39.0624 102.589C42.287 74.2745 66.3228 52.2771 95.5003 52.2771Z" fill="#333236"/>
<path id="Vector_7" d="M95.5 39.2812V152.901C126.875 152.901 152.31 127.467 152.31 96.0911C152.31 64.7156 126.875 39.2812 95.5 39.2812Z" fill="#333236"/>
</g>
</g>
</g>
<defs>
<clipPath id="clip0_302_252">
<rect width="191" height="191" fill="white"/>
</clipPath>
</defs>
</svg>
