<svg version="1.0" xmlns="http://www.w3.org/2000/svg" width="248.000000pt" height="248.000000pt" viewBox="0 0 248.000000 248.000000" preserveAspectRatio="xMidYMid meet">
<g transform="translate(0.000000,248.000000) scale(0.100000,-0.100000)" fill="#000000" stroke="none">
<path d="M1385 2340 c-55 -4 -126 -13 -158 -19 -32 -6 -137 -16 -235 -22 -97 -7 -183 -17 -190 -23 -10 -7 -12 -22 -8 -47 16 -101 24 -499 18 -844 -5 -209 -6 -386 -4 -393 13 -39 75 -35 90 6 5 16 9 270 8 608 l-1 582 55 6 c30 3 107 10 170 16 64 5 138 14 165 19 56 10 279 27 310 23 29 -4 37 -22 30 -77 -3 -27 -8 -176 -10 -330 -6 -333 -22 -651 -37 -718 -13 -59 -4 -95 26 -108 34 -16 64 3 70 44 13 83 26 359 31 622 3 160 9 366 15 460 9 148 8 171 -5 185 -18 18 -178 23 -340 10z"/>
</g>
</svg>