<svg width="51" height="51" viewBox="0 0 51 51" fill="none" xmlns="http://www.w3.org/2000/svg">
<g id="japan-flag-svgrepo-com 1" clip-path="url(#clip0_110_132)">
<g id="SVGRepo_iconCarrier">
<g id="Group">
<g id="Group_2">
<path id="Vector" d="M43.162 7.72791H7.83555C3.51499 7.72791 0 11.2429 0 15.5647V35.4366C0 39.7571 3.51499 43.2733 7.83555 43.2733H43.1632C47.4838 43.2733 51 39.7583 51 35.4366V15.5647C51 11.2441 47.4838 7.72791 43.162 7.72791ZM47.3713 35.4366H47.3689C47.3689 37.7565 45.4808 39.6446 43.1608 39.6446H7.83434C5.5144 39.6446 3.62748 37.7553 3.62748 35.4366V15.5647C3.62748 13.2447 5.5144 11.3566 7.83434 11.3566H43.162C45.482 11.3566 47.3701 13.2447 47.3701 15.5647L47.3713 35.4366Z" fill="white"/>
<path id="Vector_2" d="M25.4988 35.751C31.161 35.751 35.7511 31.1609 35.7511 25.4988C35.7511 19.8366 31.161 15.2465 25.4988 15.2465C19.8367 15.2465 15.2466 19.8366 15.2466 25.4988C15.2466 31.1609 19.8367 35.751 25.4988 35.751Z" fill="white"/>
</g>
</g>
</g>
</g>
<defs>
<clipPath id="clip0_110_132">
<rect width="51" height="51" fill="white"/>
</clipPath>
</defs>
</svg>
