<svg width="60" height="60" viewBox="0 0 60 60" fill="none" xmlns="http://www.w3.org/2000/svg">
<g id="iconizer-ken-mi(ru)_6 1">
<g id="Group">
<g id="Group_2">
<g id="Group_3">
<path id="Vector" d="M37.8964 3.35469C36.5657 3.45147 34.848 3.66921 34.0738 3.81437C33.2996 3.95954 30.7593 4.20147 28.3883 4.34663C25.9689 4.51599 23.9851 4.75792 23.8157 4.90309C23.5738 5.12083 23.5496 5.74986 23.7431 7.70954C24.0335 10.8547 24.1302 19.0563 24.0093 28.7096C23.9367 33.6693 23.9851 36.1128 24.1544 36.2822C24.4689 36.5967 25.0012 36.5967 27.0577 36.3789C28.3883 36.2096 28.5819 36.258 28.727 36.6209C29.0415 37.4193 27.8319 41.3628 26.2835 44.629C24.2512 48.9838 19.3641 53.0725 14.4286 54.5483C13.8721 54.7177 13.6786 54.9354 13.6302 55.4435C13.4367 57.1612 15.0092 57.2822 18.0818 55.758C22.1705 53.7741 25.8964 50.4596 27.8077 47.0967C29.4286 44.2903 31.2431 38.8951 31.2431 36.9354V36.0402L32.5254 35.9193C38.7674 35.266 42.8803 35.0725 43.7028 35.3628C43.9932 35.4838 44.3561 35.4354 44.6464 35.2177C45.2754 34.758 45.4448 32.8225 45.7351 21.6209C45.8803 16.6854 46.098 10.7095 46.2432 8.31438C46.4609 4.51599 46.4367 3.93534 46.1222 3.59663C45.6867 3.16115 41.8157 3.04018 37.8964 3.35469ZM43.8722 5.87083C44.0416 6.11277 43.8964 11.1934 43.7028 12.1854C43.6061 12.645 43.2432 12.7176 39.0577 13.1047C36.5657 13.3466 32.7915 13.7096 30.6867 13.9273C28.5093 14.145 26.7673 14.2176 26.6464 14.0966C26.5496 13.9757 26.3802 12.3547 26.2835 10.4676L26.1141 7.05632L27.5173 6.88696C28.3157 6.81438 30.2512 6.62083 31.848 6.49986C33.4448 6.3547 34.9448 6.18534 35.1867 6.11277C35.9367 5.87083 42.6867 5.33857 43.219 5.48373C43.4851 5.53212 43.7754 5.72567 43.8722 5.87083ZM43.5335 18.766L43.4609 22.3467L42.4932 22.4192C41.9609 22.4434 39.3964 22.6854 36.7835 22.9757C34.1948 23.2418 30.8077 23.4838 29.2835 23.508L26.5254 23.5563L26.4528 20.5321C26.356 16.2741 26.2835 16.4192 28.3399 16.4192C29.8641 16.4192 40.0496 15.5483 40.9206 15.3547C41.1141 15.3063 41.7916 15.2579 42.4448 15.2337L43.6061 15.2096L43.5335 18.766ZM43.2432 24.9354C43.3399 25.1047 43.3883 25.7338 43.3641 26.3386C43.3157 26.9434 43.219 28.5644 43.1222 29.9676L42.977 32.508L41.5254 32.6531C39.5415 32.8709 36.2028 33.1854 29.0657 33.8144C27.5657 33.9354 26.6464 33.9112 26.4528 33.766C26.2109 33.5725 26.1625 32.6289 26.2109 29.8709L26.2835 26.2176L31.727 25.8063C36.0093 25.4918 41.4286 24.9354 42.9045 24.6693C43.0012 24.6693 43.1464 24.766 43.2432 24.9354Z" fill="white"/>
</g>
</g>
</g>
</g>
</svg>
