<svg width="48" height="48" viewBox="0 0 48 48" fill="none" xmlns="http://www.w3.org/2000/svg">
<g id="Frame">
<g id="SVGRepo_iconCarrier">
<path id="Vector" fill-rule="evenodd" clip-rule="evenodd" d="M21.3734 19.6108C19.4668 22.5592 19.8389 26.4317 22.2719 28.9632C24.6658 31.4592 28.5171 31.8495 31.3631 29.8848C31.9614 29.473 32.4948 28.974 32.9452 28.4045C33.3882 27.8444 33.7484 27.2237 34.0147 26.5613C34.5611 25.2006 34.7024 23.711 34.4217 22.272C34.1454 20.846 33.4594 19.5317 32.4479 18.4895C31.4517 17.4595 30.1685 16.753 28.7654 16.462C27.3678 16.1764 25.9165 16.3238 24.6047 16.8844C23.2807 17.4519 22.1556 18.4011 21.3734 19.6108Z" stroke="#F08E8E" stroke-width="5.1" stroke-linecap="round" stroke-linejoin="round"/>
<path id="Vector_2" d="M33.7893 27.2387C33.1467 26.7702 32.2458 26.9117 31.7775 27.5545C31.3092 28.1973 31.4507 29.098 32.0936 29.5663L33.7893 27.2387ZM36.5921 32.8437C37.2347 33.312 38.1356 33.1707 38.6039 32.5279C39.0722 31.8851 38.9307 30.9844 38.2879 30.5161L36.5921 32.8437ZM14.4 25.4398C15.1953 25.4398 15.84 24.7953 15.84 23.9998C15.84 23.2045 15.1953 22.5598 14.4 22.5598V25.4398ZM10.56 22.5598C9.76471 22.5598 9.12 23.2045 9.12 23.9998C9.12 24.7953 9.76471 25.4398 10.56 25.4398V22.5598ZM14.4 31.1998C15.1953 31.1998 15.84 30.5553 15.84 29.7598C15.84 28.9645 15.1953 28.3198 14.4 28.3198V31.1998ZM10.56 28.3198C9.76471 28.3198 9.12 28.9645 9.12 29.7598C9.12 30.5553 9.76471 31.1998 10.56 31.1998V28.3198ZM16.32 19.6799C17.1153 19.6799 17.76 19.0352 17.76 18.2399C17.76 17.4446 17.1153 16.7999 16.32 16.7999V19.6799ZM10.56 16.7999C9.76471 16.7999 9.12 17.4446 9.12 18.2399C9.12 19.0352 9.76471 19.6799 10.56 19.6799V16.7999ZM32.0936 29.5663L36.5921 32.8437L38.2879 30.5161L33.7893 27.2387L32.0936 29.5663ZM14.4 22.5598H10.56V25.4398H14.4V22.5598ZM14.4 28.3198H10.56V31.1998H14.4V28.3198ZM16.32 16.7999H10.56V19.6799H16.32V16.7999Z" fill="#F08E8E"/>
</g>
</g>
</svg>
